<?xml version="1.0" encoding="UTF-8"?>
<svg id="Layer_1" data-name="Layer 1" xmlns="http://www.w3.org/2000/svg" viewBox="0 0 180 180">
  <defs>
    <style>
      .cls-1 {
        fill: #e42313;
      }

      .cls-2 {
        fill: #ffd300;
      }

      .cls-3 {
        fill: #fff;
      }
    </style>
  </defs>
  <path class="cls-3" d="M42.11,125.16l3.43,26.45h35.69l1.92,1.35c2,1.35,4.37,2.04,6.79,2.04,2.33.04,4.62-.57,6.62-1.76l2.37-1.59h35.44l3.31-26.45,20.81-15.29c1.1-4.42,1.64-8.99,1.55-13.57-.04-41.17-32.05-71.34-70.07-71.34S19.95,56.93,19.95,96.29c0,4.62.57,9.24,1.68,13.69l20.48,15.08"/>
  <path class="cls-2" d="M23.71,108.64c-1.06-4.33-1.51-8.79-1.39-13.25-.74-37.32,28.94-68.23,66.31-69.01,37.36-.74,68.27,28.94,69.01,66.31v2.74c.16,4.46-.33,8.91-1.39,13.25l-20.85,15.17-3.15,25.39h-34.34l-2.21,1.64c-1.68,1.19-3.68,1.8-5.76,1.76-2.21-.04-4.37-.82-6.09-2.21l-1.76-1.19h-34.5l-3.23-25.39-20.64-15.21"/>
  <path class="cls-1" d="M23.71,108.64c-1.06-4.33-1.51-8.79-1.39-13.25-.74-37.32,28.94-68.23,66.31-69.01,37.36-.74,68.27,28.94,69.01,66.31v2.74c.16,4.46-.33,8.91-1.39,13.25l-20.85,15.17-3.15,25.39h-34.34l-2.21,1.64c-1.68,1.19-3.68,1.8-5.76,1.76-2.21-.08-4.37-.86-6.09-2.21l-1.76-1.19h-34.5l-3.23-25.39-20.64-15.21M83.23,137.3l2.9,2.21c1.1.86,2.45,1.39,3.84,1.51,1.39-.12,2.74-.61,3.84-1.51l2.9-2.21h25.22l2.62-20.85,20.03-14.68c.69-2.29,1.02-4.62.94-6.99,0-3.84-.86-7.69-2.37-11.2v-.12l-36.34,36.63,34.91-43.09c-1.19-5.72-4.13-10.91-8.42-14.88l-.16-.16-31.4,54.49,27.63-59.52-.16-.2c-3.52-4.82-8.46-8.42-14.14-10.22l-19.25,67.74,13.9-70.52c-4.33-2.41-9.2-3.64-14.19-3.64-1.06,0-2.08.04-3.15.2l-2.58,73.38-3.39-73.3c-.98-.12-1.96-.16-2.98-.16-4.86,0-9.65,1.27-13.86,3.68l-.29.16,14.72,70.4-19.25-67.74c-5.76,1.8-10.83,5.44-14.35,10.34l27.92,59.52-31.23-55.11c-4.62,3.97-7.85,9.32-9.24,15.25l35.12,43.5-36.38-36.79v.16c-1.64,3.68-2.45,7.64-2.41,11.65,0,2.41.33,4.78.94,7.11l20.56,14.96,2.53,20.28,25.06-.2-.04-.08Z"/>
</svg>