<?xml version="1.0" encoding="utf-8"?>
<!-- Generator: Adobe Illustrator 26.2.1, SVG Export Plug-In . SVG Version: 6.00 Build 0)  -->
<svg version="1.1" id="Layer_1" xmlns="http://www.w3.org/2000/svg" xmlns:xlink="http://www.w3.org/1999/xlink" x="0px" y="0px"
	 viewBox="0 0 885 333.4" style="enable-background:new 0 0 885 333.4;" xml:space="preserve">
<style type="text/css">
	.st0{fill:none;}
	.st1{enable-background:new    ;}
	.st2{fill:#57A67B;}
	.st3{fill:#FFFFFF;}
</style>
<rect x="-123" y="-97.6" class="st0" width="1131" height="528.6"/>
<g class="st1">
	<path class="st2" d="M302.7,219.6h5.8l-10.1,41H287l-8.1-40.8l-8.1,40.8h-11.3l-10.1-41h5.8l10,40.8l8.1-40.8h11.2l8.1,40.8
		L302.7,219.6z"/>
</g>
<g class="st1">
	<path class="st2" d="M310,246.1c0-9,5.5-15.1,14.1-15.1s14,6.1,14,15.1s-5.5,15.1-14,15.1C315.5,261.2,310,255.1,310,246.1z
		 M332.8,246.1c0-6.8-3.1-11.2-8.6-11.2s-8.7,4.4-8.7,11.2c0,6.8,3.2,11.2,8.7,11.2C329.6,257.3,332.8,252.9,332.8,246.1z"/>
	<path class="st2" d="M350,237.9c1.3-4,4.2-6.8,9.5-6.8v5.2h-1.6c-5.3,0-7.9,1.7-7.9,6.9v17.4h-5.3v-28.9h5.3V237.9z"/>
	<path class="st2" d="M364.9,260.6v-41h5.3v41H364.9z"/>
	<path class="st2" d="M399.4,219.6h5.3v41h-5.3v-6.3c-1.8,4.2-5.9,6.9-10.2,6.9c-7,0-12.3-6.2-12.3-15.1s5.3-15.1,12.3-15.1
		c5.4,0,8.9,3.7,10.2,7.6V219.6z M399.6,246.1c0-6.8-3.2-11.2-8.7-11.2s-8.6,4.4-8.6,11.2c0,6.8,3.1,11.2,8.6,11.2
		C396.4,257.3,399.6,252.9,399.6,246.1z"/>
	<path class="st2" d="M412.5,247.5v-4.4h17.1v4.4H412.5z"/>
	<path class="st2" d="M435.5,246.1c0-9,5.5-15.1,14.1-15.1c7.1,0,11.8,4.3,13.1,10.4h-5.4c-0.8-3.6-3.3-6.5-7.7-6.5
		c-5.5,0-8.7,4.4-8.7,11.2c0,6.8,3.2,11.2,8.7,11.2c4.2,0,6.8-2.3,8-6.4h5.4c-1.5,6.6-6.8,10.3-13.4,10.3
		C441,261.2,435.5,255.1,435.5,246.1z"/>
	<path class="st2" d="M469,260.6v-41h5.3v41H469z"/>
	<path class="st2" d="M506.1,242v0.1v18.5h-5.3v-5.9c-2,4.1-4.4,6.5-10,6.5c-5.4,0-9.7-3.9-9.7-9.3c0-6.8,6.8-8,11.9-8.6l7.8-0.8
		V242v-0.1c0-3.8-2.1-7-6.7-7c-4.1,0-6.3,2.5-6.7,5.2H482c0.6-5.5,5.3-9.1,12.1-9.1C502.9,231.1,506.1,236.6,506.1,242z
		 M500.8,248.3v-2.2l-5.8,0.6c-4,0.4-8.5,1-8.5,5.2c0,3.7,2.9,5.8,6.3,5.8C498.1,257.7,500.8,253.5,500.8,248.3z"/>
	<path class="st2" d="M512,252.1h5.4c0.8,4.1,3.9,5.2,6.9,5.2c4.5,0,6.9-1.7,6.9-4.4c0-2.6-1.5-3.8-5.8-4.8l-4-0.9
		c-5-1.1-8.5-3.3-8.5-7.8c0-5.1,5.1-8.5,11.4-8.5c5.6,0,10.4,2.6,11.7,7.8h-5.4c-0.8-2.5-3.5-3.9-6.3-3.9c-3.1,0-6.2,1.5-6.2,4
		c0,2.3,1.9,3.1,5.8,3.9l4.1,0.9c6,1.3,8.5,4,8.5,8.5c0,5.6-5,8.9-12.1,8.9C517.8,261.2,512.8,258.1,512,252.1z"/>
	<path class="st2" d="M540.6,252.1h5.4c0.8,4.1,3.9,5.2,6.9,5.2c4.5,0,6.9-1.7,6.9-4.4c0-2.6-1.5-3.8-5.8-4.8l-4-0.9
		c-5-1.1-8.5-3.3-8.5-7.8c0-5.1,5.1-8.5,11.4-8.5c5.6,0,10.4,2.6,11.7,7.8h-5.4c-0.8-2.5-3.5-3.9-6.3-3.9c-3.1,0-6.2,1.5-6.2,4
		c0,2.3,1.9,3.1,5.8,3.9l4.1,0.9c6,1.3,8.5,4,8.5,8.5c0,5.6-5,8.9-12.1,8.9C546.4,261.2,541.4,258.1,540.6,252.1z"/>
</g>
<g class="st1">
	<path class="st2" d="M610.4,247.7h-21.9c0.4,6.3,3.6,9.6,8.4,9.6c4.2,0,6.4-1.9,7.5-5.2h5.4c-1.7,6.2-6.4,9.1-12.9,9.1
		c-8.7,0-13.8-6.4-13.8-15.1c0-8.8,5.1-15.1,13.7-15.1c8.1,0,13.6,5.7,13.6,14.6C610.5,246.2,610.4,247,610.4,247.7z M588.6,243.7
		h16.5c-0.3-5.2-3.5-8.7-8.2-8.7C592.3,234.9,589.2,237.9,588.6,243.7z"/>
</g>
<g class="st1">
	<path class="st2" d="M641,260.6h-5.7l-8.8-12l-8.8,12H612l11.4-15.6l-10.3-13.4h5.7l7.7,10l7.7-10h5.7L629.6,245L641,260.6z"/>
	<path class="st2" d="M673.3,246.1c0,8.9-5.3,15.1-12.3,15.1c-4.3,0-8.4-2.8-10.2-6.9v16.9h-5.3v-39.5h5.3v7
		c1.3-3.9,4.8-7.6,10.2-7.6C668,231.1,673.3,237.2,673.3,246.1z M667.9,246.1c0-6.8-3.1-11.2-8.6-11.2s-8.7,4.4-8.7,11.2
		c0,6.8,3.2,11.2,8.7,11.2C664.8,257.3,667.9,252.9,667.9,246.1z"/>
	<path class="st2" d="M705.4,247.7h-21.9c0.4,6.3,3.6,9.6,8.4,9.6c4.2,0,6.4-1.9,7.5-5.2h5.4c-1.7,6.2-6.4,9.1-12.9,9.1
		c-8.7,0-13.8-6.4-13.8-15.1c0-8.8,5.1-15.1,13.7-15.1c8.1,0,13.6,5.7,13.6,14.6C705.5,246.2,705.5,247,705.4,247.7z M683.6,243.7
		h16.5c-0.3-5.2-3.5-8.7-8.2-8.7C687.3,234.9,684.2,237.9,683.6,243.7z"/>
	<path class="st2" d="M717.4,237.9c1.3-4,4.2-6.8,9.5-6.8v5.2h-1.6c-5.3,0-7.9,1.7-7.9,6.9v17.4h-5.3v-28.9h5.3V237.9z"/>
	<path class="st2" d="M732,226.7v-7.1h5.7v7.1H732z M732.3,260.6v-28.9h5.3v28.9H732.3z"/>
	<path class="st2" d="M771.4,247.7h-21.9c0.4,6.3,3.6,9.6,8.4,9.6c4.2,0,6.4-1.9,7.5-5.2h5.4c-1.7,6.2-6.4,9.1-12.9,9.1
		c-8.7,0-13.8-6.4-13.8-15.1c0-8.8,5.1-15.1,13.7-15.1c8.1,0,13.6,5.7,13.6,14.6C771.5,246.2,771.5,247,771.4,247.7z M749.6,243.7
		h16.5c-0.3-5.2-3.5-8.7-8.2-8.7C753.3,234.9,750.2,237.9,749.6,243.7z"/>
	<path class="st2" d="M802.5,242.6v0.1v17.9h-5.3v-17.1v-0.1c0-5.9-2.7-8.4-6.9-8.4s-6.9,2.6-6.9,8.5v17.1h-5.3v-28.9h5.3v5.9
		c1.3-3.4,4.1-6.5,9.1-6.5C799,231.1,802.5,236.1,802.5,242.6z"/>
	<path class="st2" d="M808.8,246.1c0-9,5.5-15.1,14.1-15.1c7.1,0,11.8,4.3,13.1,10.4h-5.4c-0.8-3.6-3.3-6.5-7.7-6.5
		c-5.5,0-8.7,4.4-8.7,11.2c0,6.8,3.2,11.2,8.7,11.2c4.2,0,6.8-2.3,8-6.4h5.4c-1.5,6.6-6.8,10.3-13.4,10.3
		C814.3,261.2,808.8,255.1,808.8,246.1z"/>
	<path class="st2" d="M867.7,247.7h-21.9c0.4,6.3,3.6,9.6,8.4,9.6c4.2,0,6.4-1.9,7.5-5.2h5.4c-1.7,6.2-6.4,9.1-12.9,9.1
		c-8.7,0-13.8-6.4-13.8-15.1c0-8.8,5.1-15.1,13.7-15.1c8.1,0,13.6,5.7,13.6,14.6C867.8,246.2,867.7,247,867.7,247.7z M845.9,243.7
		h16.5c-0.3-5.2-3.5-8.7-8.2-8.7C849.6,234.9,846.5,237.9,845.9,243.7z"/>
</g>
<g class="st1">
	<path class="st2" d="M874.3,260.6v-6.5h6.4v6.5H874.3z"/>
</g>
<g class="st1">
	<path class="st2" d="M259,320.4h18.8v4.9h-24.2v-41h5.5L259,320.4L259,320.4z"/>
</g>
<g class="st1">
	<path class="st2" d="M280.3,310.8c0-9,5.5-15.1,14.1-15.1s14,6.1,14,15.1s-5.5,15.1-14,15.1C285.8,325.9,280.3,319.8,280.3,310.8z
		 M303.1,310.8c0-6.8-3.1-11.2-8.6-11.2s-8.7,4.4-8.7,11.2c0,6.8,3.2,11.2,8.7,11.2C299.9,322,303.1,317.6,303.1,310.8z"/>
	<path class="st2" d="M313.2,310.8c0-9,5.5-15.1,14.1-15.1c7.1,0,11.8,4.3,13.1,10.4H335c-0.8-3.6-3.3-6.5-7.7-6.5
		c-5.5,0-8.7,4.4-8.7,11.2c0,6.8,3.2,11.2,8.7,11.2c4.2,0,6.8-2.3,8-6.4h5.4c-1.5,6.6-6.8,10.3-13.4,10.3
		C318.7,325.9,313.2,319.8,313.2,310.8z"/>
	<path class="st2" d="M370.1,306.7v0.1v18.5h-5.3v-5.9c-2,4.1-4.4,6.5-10,6.5c-5.4,0-9.7-3.9-9.7-9.3c0-6.8,6.8-8,11.9-8.6l7.8-0.8
		v-0.5v-0.1c0-3.8-2.1-7-6.7-7c-4.1,0-6.3,2.5-6.7,5.2H346c0.6-5.5,5.3-9.1,12.1-9.1C366.9,295.8,370.1,301.3,370.1,306.7z
		 M364.8,313v-2.2l-5.8,0.6c-4,0.4-8.5,1-8.5,5.2c0,3.7,2.9,5.8,6.3,5.8C362.1,322.4,364.8,318.2,364.8,313z"/>
	<path class="st2" d="M378.2,325.3v-41h5.3v41H378.2z"/>
	<path class="st2" d="M431,325.3h-6.6l-13.7-15.6v15.6h-5.3v-41h5.3v24.5l13.2-12.4h6.6l-13.7,12.8L431,325.3z"/>
	<path class="st2" d="M459.6,307.3v0.1v17.9h-5.3v-17.1v-0.1c0-5.9-2.7-8.4-6.9-8.4s-6.9,2.6-6.9,8.5v17.1h-5.3v-28.9h5.3v5.9
		c1.3-3.4,4.1-6.5,9.1-6.5C456.1,295.8,459.6,300.8,459.6,307.3z"/>
</g>
<g class="st1">
	<path class="st2" d="M465.8,310.8c0-9,5.5-15.1,14.1-15.1s14,6.1,14,15.1s-5.5,15.1-14,15.1C471.3,325.9,465.8,319.8,465.8,310.8z
		 M488.6,310.8c0-6.8-3.1-11.2-8.6-11.2s-8.7,4.4-8.7,11.2c0,6.8,3.2,11.2,8.7,11.2C485.4,322,488.6,317.6,488.6,310.8z"/>
</g>
<g class="st1">
	<path class="st2" d="M537.9,296.4h5.1l-7.1,28.9h-10.1l-5.6-28.7l-5.6,28.7h-10.1l-7.1-28.9h5.1l7.1,28.7l5.6-28.7h10l5.6,28.7
		L537.9,296.4z"/>
	<path class="st2" d="M547.8,312.2v-4.4h17.1v4.4H547.8z"/>
	<path class="st2" d="M597.1,307.3v0.1v17.9h-5.3v-17.1v-0.1c0-5.9-2.7-8.4-6.9-8.4s-6.9,2.6-6.9,8.5v17.1h-5.3v-41h5.3v18
		c1.3-3.4,4.1-6.5,9.1-6.5C593.6,295.8,597.1,300.8,597.1,307.3z"/>
</g>
<g class="st1">
	<path class="st2" d="M603.4,310.8c0-9,5.5-15.1,14.1-15.1s14,6.1,14,15.1s-5.5,15.1-14,15.1C608.9,325.9,603.4,319.8,603.4,310.8z
		 M626.1,310.8c0-6.8-3.1-11.2-8.6-11.2s-8.7,4.4-8.7,11.2c0,6.8,3.2,11.2,8.7,11.2S626.1,317.6,626.1,310.8z"/>
</g>
<g class="st1">
	<path class="st2" d="M675.4,296.4h5.1l-7.1,28.9h-10.1l-5.6-28.7l-5.6,28.7H642l-7.1-28.9h5.1l7.1,28.7l5.6-28.7h10l5.6,28.7
		L675.4,296.4z"/>
</g>
<g class="st1">
	<path class="st2" d="M684.1,325.3v-6.5h6.4v6.5H684.1z"/>
</g>
<path class="st2" d="M109.4,96.2L78,43.4h52.3l31.5,52.9l-31.5,52.9H78L109.4,96.2z M56.8,8.1L4.4,96.2l52.4,88.1h104.9l52.4-88.1
	L161.7,8.1C161.7,8.1,56.8,8.1,56.8,8.1z"/>
<path class="st3" d="M289.5,149.1V75.7h-40.2V43.4h127.3v32.3h-40.2v73.4L289.5,149.1z M617.4,43.4l-30.5,30.1l-29.6-30.1h-49
	l50.4,50.5l-50.5,55.2h49.2l30.1-34.2l30,34.2h50l-51.8-55.8l51.6-49.9H617.4z M528.4,96.3c0,16.9-7.6,30-18.8,39.1
	s-27.2,13.7-47.9,13.7h-76.2V43.4h76.1c20.8,0,36.7,4.6,47.9,13.7C520.8,66.2,528.4,79.3,528.4,96.3L528.4,96.3z M484.6,96.3
	c0-6.6-3-12.8-8.2-16.9c-4.7-3.9-11.5-5.9-20.1-5.9h-26V119h26c8.7,0,15.4-2,20.1-5.9C481.6,109,484.6,102.8,484.6,96.3L484.6,96.3z
	"/>
</svg>
