<?xml version="1.0" encoding="utf-8"?>
<!-- Generator: Adobe Illustrator 26.2.1, SVG Export Plug-In . SVG Version: 6.00 Build 0)  -->
<svg version="1.1" id="Layer_1" xmlns="http://www.w3.org/2000/svg" xmlns:xlink="http://www.w3.org/1999/xlink" x="0px" y="0px"
	 viewBox="0 0 1615.4 387.6" style="enable-background:new 0 0 1615.4 387.6;" xml:space="preserve">
<style type="text/css">
	.st0{fill:none;}
	.st1{fill:#57A67B;}
	.st2{enable-background:new    ;}
</style>
<rect class="st0" width="1615.4" height="387.6"/>
<path class="st1" d="M232.4,193.8L201,141h52.3l31.5,52.9l-31.5,52.9H201L232.4,193.8z M179.8,105.7l-52.4,88.1l52.4,88.1h104.9
	l52.4-88.1l-52.4-88.1L179.8,105.7z"/>
<path d="M412.5,246.7v-73.4h-40.2V141h127.3v32.3h-40.2v73.4L412.5,246.7z M740.4,141l-30.5,30.1L680.3,141h-49l50.4,50.5
	l-50.5,55.2h49.2l30.1-34.2l30,34.2h50l-51.8-55.8l51.6-49.9H740.4z M651.4,193.9c0,16.9-7.6,30-18.8,39.1s-27.2,13.7-47.9,13.7
	h-76.2V141h76.1c20.8,0,36.7,4.6,47.9,13.7C643.8,163.8,651.4,176.9,651.4,193.9L651.4,193.9z M607.6,193.9c0-6.6-3-12.8-8.2-16.9
	c-4.7-3.9-11.5-5.9-20.1-5.9h-26v45.5h26c8.7,0,15.4-2,20.1-5.9C604.6,206.6,607.6,200.4,607.6,193.9L607.6,193.9z"/>
<g class="st2">
	<path class="st1" d="M910.1,141h5.8l-10.1,41h-11.3l-8.1-40.8l-8.1,40.8h-11.3l-10.1-41h5.8l10,40.8l8.1-40.8H892l8.1,40.8
		L910.1,141z"/>
</g>
<g class="st2">
	<path class="st1" d="M917.5,167.5c0-9,5.5-15.1,14.1-15.1s14,6.1,14,15.1c0,9-5.5,15.1-14,15.1S917.5,176.5,917.5,167.5z
		 M940.2,167.5c0-6.8-3.1-11.2-8.6-11.2s-8.7,4.4-8.7,11.2c0,6.8,3.2,11.2,8.7,11.2S940.2,174.3,940.2,167.5z"/>
	<path class="st1" d="M957.5,159.3c1.3-4,4.2-6.8,9.5-6.8v5.2h-1.6c-5.3,0-7.9,1.7-7.9,6.9V182h-5.3v-28.9h5.3V159.3z"/>
	<path class="st1" d="M972.3,182v-41h5.3v41H972.3z"/>
	<path class="st1" d="M1006.8,141h5.3v41h-5.3v-6.3c-1.8,4.2-5.9,6.9-10.2,6.9c-7,0-12.3-6.2-12.3-15.1s5.3-15.1,12.3-15.1
		c5.4,0,8.9,3.7,10.2,7.6V141z M1007,167.5c0-6.8-3.2-11.2-8.7-11.2c-5.5,0-8.6,4.4-8.6,11.2c0,6.8,3.1,11.2,8.6,11.2
		C1003.8,178.7,1007,174.3,1007,167.5z"/>
	<path class="st1" d="M1019.9,168.9v-4.4h17.1v4.4H1019.9z"/>
	<path class="st1" d="M1043,167.5c0-9,5.5-15.1,14.1-15.1c7.1,0,11.8,4.3,13.1,10.4h-5.4c-0.8-3.6-3.3-6.5-7.7-6.5
		c-5.5,0-8.7,4.4-8.7,11.2c0,6.8,3.2,11.2,8.7,11.2c4.2,0,6.8-2.3,8-6.4h5.4c-1.5,6.6-6.8,10.3-13.4,10.3
		C1048.5,182.6,1043,176.5,1043,167.5z"/>
	<path class="st1" d="M1076.4,182v-41h5.3v41H1076.4z"/>
	<path class="st1" d="M1113.5,163.4v0.1V182h-5.3v-5.9c-2,4.1-4.4,6.5-10,6.5c-5.4,0-9.7-3.9-9.7-9.3c0-6.8,6.8-8,11.9-8.6l7.8-0.8
		v-0.5v-0.1c0-3.8-2.1-7-6.7-7c-4,0-6.3,2.5-6.7,5.2h-5.4c0.6-5.5,5.3-9.1,12.1-9.1C1110.4,152.5,1113.5,158,1113.5,163.4z
		 M1108.3,169.7v-2.2l-5.8,0.6c-4,0.4-8.5,1-8.5,5.2c0,3.7,2.9,5.8,6.3,5.8C1105.6,179.1,1108.3,174.9,1108.3,169.7z"/>
	<path class="st1" d="M1119.4,173.5h5.4c0.8,4.1,3.9,5.2,6.9,5.2c4.5,0,6.9-1.7,6.9-4.4c0-2.6-1.5-3.8-5.8-4.8l-4-0.9
		c-5-1.1-8.5-3.3-8.5-7.8c0-5.1,5.1-8.5,11.4-8.5c5.6,0,10.4,2.6,11.7,7.8h-5.4c-0.8-2.5-3.5-3.9-6.3-3.9c-3.1,0-6.2,1.5-6.2,4
		c0,2.3,1.9,3.1,5.8,3.9l4,0.9c6,1.3,8.5,4,8.5,8.5c0,5.6-5,8.9-12.1,8.9C1125.3,182.6,1120.2,179.5,1119.4,173.5z"/>
	<path class="st1" d="M1148.1,173.5h5.4c0.8,4.1,3.9,5.2,6.9,5.2c4.5,0,6.9-1.7,6.9-4.4c0-2.6-1.5-3.8-5.8-4.8l-4-0.9
		c-5-1.1-8.5-3.3-8.5-7.8c0-5.1,5.1-8.5,11.4-8.5c5.6,0,10.4,2.6,11.7,7.8h-5.4c-0.8-2.5-3.5-3.9-6.3-3.9c-3.1,0-6.2,1.5-6.2,4
		c0,2.3,1.9,3.1,5.8,3.9l4,0.9c6,1.3,8.5,4,8.5,8.5c0,5.6-5,8.9-12.1,8.9C1153.9,182.6,1148.9,179.5,1148.1,173.5z"/>
</g>
<g class="st2">
	<path class="st1" d="M1217.8,169.1H1196c0.4,6.3,3.6,9.6,8.4,9.6c4.2,0,6.4-1.9,7.5-5.2h5.4c-1.7,6.2-6.4,9.1-12.9,9.1
		c-8.7,0-13.8-6.4-13.8-15.1c0-8.8,5.1-15.1,13.7-15.1c8.1,0,13.6,5.7,13.6,14.6C1217.9,167.6,1217.9,168.4,1217.8,169.1z
		 M1196,165.1h16.5c-0.3-5.2-3.5-8.7-8.2-8.7C1199.7,156.3,1196.7,159.3,1196,165.1z"/>
</g>
<g class="st2">
	<path class="st1" d="M1248.4,182h-5.7l-8.8-12l-8.8,12h-5.7l11.4-15.6l-10.3-13.4h5.7l7.7,10l7.7-10h5.7l-10.3,13.4L1248.4,182z"/>
	<path class="st1" d="M1280.8,167.5c0,8.9-5.3,15.1-12.3,15.1c-4.3,0-8.4-2.8-10.2-6.9v16.9h-5.3v-39.5h5.3v7
		c1.3-3.9,4.8-7.6,10.2-7.6C1275.4,152.5,1280.8,158.6,1280.8,167.5z M1275.4,167.5c0-6.8-3.1-11.2-8.6-11.2
		c-5.5,0-8.7,4.4-8.7,11.2c0,6.8,3.2,11.2,8.7,11.2C1272.2,178.7,1275.4,174.3,1275.4,167.5z"/>
	<path class="st1" d="M1312.9,169.1H1291c0.4,6.3,3.6,9.6,8.4,9.6c4.2,0,6.4-1.9,7.5-5.2h5.4c-1.7,6.2-6.4,9.1-12.9,9.1
		c-8.7,0-13.8-6.4-13.8-15.1c0-8.8,5.1-15.1,13.7-15.1c8.1,0,13.6,5.7,13.6,14.6C1313,167.6,1312.9,168.4,1312.9,169.1z M1291,165.1
		h16.5c-0.3-5.2-3.5-8.7-8.2-8.7C1294.8,156.3,1291.7,159.3,1291,165.1z"/>
	<path class="st1" d="M1324.8,159.3c1.3-4,4.2-6.8,9.5-6.8v5.2h-1.6c-5.3,0-7.9,1.7-7.9,6.9V182h-5.3v-28.9h5.3V159.3z"/>
	<path class="st1" d="M1339.5,148.1V141h5.7v7.1H1339.5z M1339.7,182v-28.9h5.3V182H1339.7z"/>
	<path class="st1" d="M1378.8,169.1H1357c0.4,6.3,3.6,9.6,8.4,9.6c4.2,0,6.4-1.9,7.5-5.2h5.4c-1.7,6.2-6.4,9.1-12.9,9.1
		c-8.7,0-13.8-6.4-13.8-15.1c0-8.8,5.1-15.1,13.7-15.1c8.1,0,13.6,5.7,13.6,14.6C1379,167.6,1378.9,168.4,1378.8,169.1z M1357,165.1
		h16.5c-0.3-5.2-3.5-8.7-8.2-8.7C1360.8,156.3,1357.7,159.3,1357,165.1z"/>
	<path class="st1" d="M1409.9,164v0.1V182h-5.3v-17.1v-0.1c0-5.9-2.7-8.4-6.9-8.4c-4.2,0-6.9,2.6-6.9,8.5V182h-5.3v-28.9h5.3v5.9
		c1.3-3.4,4.1-6.5,9.1-6.5C1406.4,152.5,1409.9,157.5,1409.9,164z"/>
	<path class="st1" d="M1416.2,167.5c0-9,5.5-15.1,14.1-15.1c7.1,0,11.8,4.3,13.1,10.4h-5.4c-0.8-3.6-3.3-6.5-7.7-6.5
		c-5.5,0-8.7,4.4-8.7,11.2c0,6.8,3.2,11.2,8.7,11.2c4.2,0,6.8-2.3,8-6.4h5.4c-1.5,6.6-6.8,10.3-13.4,10.3
		C1421.7,182.6,1416.2,176.5,1416.2,167.5z"/>
	<path class="st1" d="M1475.1,169.1h-21.9c0.4,6.3,3.6,9.6,8.4,9.6c4.2,0,6.4-1.9,7.5-5.2h5.4c-1.7,6.2-6.4,9.1-12.9,9.1
		c-8.7,0-13.8-6.4-13.8-15.1c0-8.8,5.1-15.1,13.7-15.1c8.1,0,13.6,5.7,13.6,14.6C1475.2,167.6,1475.2,168.4,1475.1,169.1z
		 M1453.3,165.1h16.5c-0.3-5.2-3.5-8.7-8.2-8.7C1457,156.3,1454,159.3,1453.3,165.1z"/>
</g>
<g class="st2">
	<path class="st1" d="M1481.7,182v-6.5h6.4v6.5H1481.7z"/>
</g>
<g class="st2">
	<path class="st1" d="M866.4,241.8h18.8v4.9h-24.2v-41h5.5V241.8z"/>
</g>
<g class="st2">
	<path class="st1" d="M887.8,232.2c0-9,5.5-15.1,14.1-15.1c8.6,0,14,6.1,14,15.1c0,9-5.5,15.1-14,15.1
		C893.3,247.3,887.8,241.2,887.8,232.2z M910.5,232.2c0-6.8-3.1-11.2-8.6-11.2c-5.5,0-8.7,4.4-8.7,11.2c0,6.8,3.2,11.2,8.7,11.2
		C907.4,243.4,910.5,239,910.5,232.2z"/>
	<path class="st1" d="M920.7,232.2c0-9,5.5-15.1,14.1-15.1c7.1,0,11.8,4.3,13.1,10.4h-5.4c-0.8-3.6-3.3-6.5-7.7-6.5
		c-5.5,0-8.7,4.4-8.7,11.2c0,6.8,3.2,11.2,8.7,11.2c4.2,0,6.8-2.3,8-6.4h5.4c-1.5,6.6-6.8,10.3-13.4,10.3
		C926.2,247.3,920.7,241.2,920.7,232.2z"/>
	<path class="st1" d="M977.5,228.1v0.1v18.5h-5.3v-5.9c-2,4.1-4.4,6.5-10,6.5c-5.4,0-9.7-3.9-9.7-9.3c0-6.8,6.8-8,11.9-8.6l7.8-0.8
		v-0.5V228c0-3.8-2.1-7-6.7-7c-4,0-6.3,2.5-6.7,5.2h-5.4c0.6-5.5,5.3-9.1,12.1-9.1C974.3,217.2,977.5,222.7,977.5,228.1z
		 M972.2,234.4v-2.2l-5.8,0.6c-4,0.4-8.5,1-8.5,5.2c0,3.7,2.9,5.8,6.3,5.8C969.5,243.8,972.2,239.6,972.2,234.4z"/>
	<path class="st1" d="M985.6,246.7v-41h5.3v41H985.6z"/>
	<path class="st1" d="M1038.4,246.7h-6.6l-13.7-15.6v15.6h-5.3v-41h5.3v24.5l13.2-12.4h6.6l-13.7,12.8L1038.4,246.7z"/>
	<path class="st1" d="M1067,228.7v0.1v17.9h-5.3v-17.1v-0.1c0-5.9-2.7-8.4-6.9-8.4c-4.2,0-6.9,2.6-6.9,8.5v17.1h-5.3v-28.9h5.3v5.9
		c1.3-3.4,4.1-6.5,9.1-6.5C1063.5,217.2,1067,222.2,1067,228.7z"/>
</g>
<g class="st2">
	<path class="st1" d="M1073.3,232.2c0-9,5.5-15.1,14.1-15.1s14,6.1,14,15.1c0,9-5.5,15.1-14,15.1S1073.3,241.2,1073.3,232.2z
		 M1096,232.2c0-6.8-3.1-11.2-8.6-11.2s-8.7,4.4-8.7,11.2c0,6.8,3.2,11.2,8.7,11.2S1096,239,1096,232.2z"/>
</g>
<g class="st2">
	<path class="st1" d="M1145.3,217.8h5.1l-7.1,28.9h-10.1l-5.6-28.7l-5.6,28.7h-10.1l-7.1-28.9h5.1l7.1,28.7l5.6-28.7h10l5.6,28.7
		L1145.3,217.8z"/>
	<path class="st1" d="M1155.2,233.6v-4.4h17.1v4.4H1155.2z"/>
	<path class="st1" d="M1204.5,228.7v0.1v17.9h-5.3v-17.1v-0.1c0-5.9-2.7-8.4-6.9-8.4c-4.2,0-6.9,2.6-6.9,8.5v17.1h-5.3v-41h5.3v18
		c1.3-3.4,4.1-6.5,9.1-6.5C1201,217.2,1204.5,222.2,1204.5,228.7z"/>
</g>
<g class="st2">
	<path class="st1" d="M1210.8,232.2c0-9,5.5-15.1,14.1-15.1s14,6.1,14,15.1c0,9-5.5,15.1-14,15.1S1210.8,241.2,1210.8,232.2z
		 M1233.5,232.2c0-6.8-3.1-11.2-8.6-11.2s-8.7,4.4-8.7,11.2c0,6.8,3.2,11.2,8.7,11.2S1233.5,239,1233.5,232.2z"/>
</g>
<g class="st2">
	<path class="st1" d="M1282.8,217.8h5.1l-7.1,28.9h-10.1l-5.6-28.7l-5.6,28.7h-10.1l-7.1-28.9h5.1l7.1,28.7l5.6-28.7h10l5.6,28.7
		L1282.8,217.8z"/>
</g>
<g class="st2">
	<path class="st1" d="M1291.6,246.7v-6.5h6.4v6.5H1291.6z"/>
</g>
</svg>
