<?xml version="1.0" encoding="UTF-8"?>
<svg id="Layer_1" xmlns="http://www.w3.org/2000/svg" version="1.1" viewBox="0 0 860 224">
  <!-- Generator: Adobe Illustrator 30.3.0, SVG Export Plug-In . SVG Version: 2.1.3 Build 182)  -->
  <defs>
    <style>
      .st0 {
        fill: none;
      }
    </style>
  </defs>
  <rect class="st0" x="16.1" y="-81.8" width="917.7" height="387.6"/>
  <path d="M148.8,112l-39.3-66h65.3l39.3,66-39.3,66h-65.3l39.3-66ZM82.9,2L17.4,112l65.5,110h131l65.5-110L213.9,2H82.9Z"/>
  <path d="M373.5,178v-91.7h-50.2v-40.3h159v40.3h-50.2v91.7h-58.6,0ZM782.9,46.1l-38.1,37.6-36.9-37.6h-61.2l62.9,63.1-63.1,68.9h61.4l37.6-42.7,37.5,42.7h62.5l-64.7-69.7,64.5-62.3h-62.4ZM671.9,112.1c0,21.1-9.5,37.5-23.5,48.9s-33.9,17.1-59.9,17.1h-95.1V46.1h95.1c25.9,0,45.9,5.7,59.9,17.1,14,11.4,23.4,27.7,23.5,48.9h0ZM617.1,112.1c0-8.2-3.8-16-10.2-21.1-5.9-4.9-14.3-7.4-25.1-7.4h-32.5v56.8h32.5c10.8,0,19.3-2.5,25.1-7.4,6.4-5,10.2-12.8,10.2-20.9h0Z"/>
</svg>