<?xml version="1.0" encoding="UTF-8"?><svg id="Layer_1" xmlns="http://www.w3.org/2000/svg" viewBox="0 0 1615.4 387.6"><defs><style>.cls-1{fill:#fff;}.cls-2{fill:#57a57b;}</style></defs><path class="cls-2" d="M124.68,194.26l-37.3-62.65h62.07l37.32,62.7-37.32,62.7h-62.07l37.3-62.75ZM62.2,89.76L0,194.24l62.2,104.51h124.4l62.2-104.51-62.2-104.49H62.2Z"/><path class="cls-1" d="M338.27,256.96v-87.09h-47.66v-38.27h151.04v38.31h-47.66v87.09l-55.73-.05Zm388.93-125.35l-36.23,35.7-35.02-35.7h-58.12l59.75,59.91-59.91,65.48h58.31l35.7-40.58,35.58,40.58h59.37l-61.49-66.18,61.24-59.21h-59.19Zm-105.57,62.7c0,20.08-9.01,35.58-22.31,46.41-13.3,10.83-32.25,16.27-56.86,16.27h-90.35v-125.39h90.31c24.62,0,43.57,5.43,56.86,16.29,13.3,10.81,22.31,26.27,22.31,46.37l.04,.05Zm-51.93,0c-.02-7.8-3.6-15.17-9.73-20-5.59-4.64-13.63-6.99-23.89-6.99h-30.84v53.99h30.84c10.26,0,18.3-2.37,23.89-7,6.13-4.85,9.7-12.24,9.69-20.06l.04,.05Z"/></svg>