<?xml version="1.0" encoding="UTF-8"?><svg id="Layer_1" xmlns="http://www.w3.org/2000/svg" viewBox="0 0 1670 260"><defs><style>.cls-1{fill:#fff;}.cls-2{fill:#57a57b;}</style></defs><path class="cls-2" d="M129.3,130l-38.6-64.82h64.22l38.61,64.87-38.61,64.87H90.7l38.6-64.92ZM64.66,21.88L.3,129.99l64.36,108.13H193.37l64.36-108.13L193.37,21.88H64.66Z"/><path class="cls-1" d="M350.29,194.87V104.77h-49.31v-39.59h156.28v39.64h-49.31v90.11l-57.66-.05ZM752.7,65.18l-37.48,36.94-36.23-36.94h-60.14l61.82,61.99-61.99,67.75h60.33l36.94-41.98,36.82,41.98h61.42l-63.62-68.47,63.36-61.27h-61.24Zm-109.23,64.87c0,20.78-9.33,36.82-23.08,48.02-13.76,11.2-33.37,16.84-58.84,16.84h-93.48V65.18h93.44c25.47,0,45.08,5.62,58.84,16.85,13.76,11.18,23.08,27.18,23.08,47.97l.04,.05Zm-53.73,0c-.02-8.07-3.72-15.7-10.06-20.69-5.78-4.8-14.1-7.23-24.72-7.23h-31.91v55.87h31.91c10.62,0,18.94-2.45,24.72-7.24,6.35-5.02,10.04-12.66,10.03-20.75l.04,.05Z"/></svg>