<?xml version="1.0" encoding="utf-8"?>
<!-- Generator: Adobe Illustrator 27.5.0, SVG Export Plug-In . SVG Version: 6.00 Build 0)  -->
<svg version="1.1" id="Layer_1" xmlns="http://www.w3.org/2000/svg" xmlns:xlink="http://www.w3.org/1999/xlink" x="0px" y="0px"
	 viewBox="0 0 1372 188" style="enable-background:new 0 0 1372 188;" xml:space="preserve">
<style type="text/css">
	.st0{fill:none;}
	.st1{fill:#57A67B;}
	.st2{fill:#FFFFFF;}
	.st3{enable-background:new    ;}
</style>
<rect x="-122" y="-100" class="st0" width="1615.4" height="387.6"/>
<path class="st1" d="M110.4,93.8L79,41h52.3l31.5,52.9l-31.5,52.9H79L110.4,93.8z M57.8,5.7L5.4,93.8l52.4,88.1h104.9l52.4-88.1
	L162.7,5.7L57.8,5.7z"/>
<path class="st2" d="M290.5,146.7V73.3h-40.2V41h127.3v32.3h-40.2v73.4L290.5,146.7z M618.4,41l-30.5,30.1L558.3,41h-49l50.4,50.5
	l-50.5,55.2h49.2l30.1-34.2l30,34.2h50l-51.8-55.8L668.3,41H618.4z M529.4,93.9c0,16.9-7.6,30-18.8,39.1s-27.2,13.7-47.9,13.7h-76.2
	V41h76.1c20.8,0,36.7,4.6,47.9,13.7C521.8,63.8,529.4,76.9,529.4,93.9L529.4,93.9z M485.6,93.9c0-6.6-3-12.8-8.2-16.9
	c-4.7-3.9-11.5-5.9-20.1-5.9h-26v45.5h26c8.7,0,15.4-2,20.1-5.9C482.6,106.6,485.6,100.4,485.6,93.9L485.6,93.9z"/>
<g class="st3">
	<path class="st1" d="M788.1,41h5.8l-10.1,41h-11.3l-8.1-40.8L756.3,82H745l-10.1-41h5.8l10,40.8l8.1-40.8H770l8.1,40.8L788.1,41z"
		/>
</g>
<g class="st3">
	<path class="st1" d="M795.5,67.5c0-9,5.5-15.1,14.1-15.1s14,6.1,14,15.1s-5.5,15.1-14,15.1S795.5,76.5,795.5,67.5z M818.2,67.5
		c0-6.8-3.1-11.2-8.6-11.2s-8.7,4.4-8.7,11.2s3.2,11.2,8.7,11.2S818.2,74.3,818.2,67.5z"/>
	<path class="st1" d="M835.5,59.3c1.3-4,4.2-6.8,9.5-6.8v5.2h-1.6c-5.3,0-7.9,1.7-7.9,6.9V82h-5.3V53.1h5.3V59.3z"/>
	<path class="st1" d="M850.3,82V41h5.3v41H850.3z"/>
	<path class="st1" d="M884.8,41h5.3v41h-5.3v-6.3c-1.8,4.2-5.9,6.9-10.2,6.9c-7,0-12.3-6.2-12.3-15.1s5.3-15.1,12.3-15.1
		c5.4,0,8.9,3.7,10.2,7.6V41z M885,67.5c0-6.8-3.2-11.2-8.7-11.2s-8.6,4.4-8.6,11.2s3.1,11.2,8.6,11.2S885,74.3,885,67.5z"/>
	<path class="st1" d="M897.9,68.9v-4.4H915v4.4H897.9z"/>
	<path class="st1" d="M921,67.5c0-9,5.5-15.1,14.1-15.1c7.1,0,11.8,4.3,13.1,10.4h-5.4c-0.8-3.6-3.3-6.5-7.7-6.5
		c-5.5,0-8.7,4.4-8.7,11.2s3.2,11.2,8.7,11.2c4.2,0,6.8-2.3,8-6.4h5.4c-1.5,6.6-6.8,10.3-13.4,10.3C926.5,82.6,921,76.5,921,67.5z"
		/>
	<path class="st1" d="M954.4,82V41h5.3v41H954.4z"/>
	<path class="st1" d="M991.5,63.4v0.1V82h-5.3v-5.9c-2,4.1-4.4,6.5-10,6.5c-5.4,0-9.7-3.9-9.7-9.3c0-6.8,6.8-8,11.9-8.6l7.8-0.8
		v-0.5v-0.1c0-3.8-2.1-7-6.7-7c-4,0-6.3,2.5-6.7,5.2h-5.4c0.6-5.5,5.3-9.1,12.1-9.1C988.4,52.5,991.5,58,991.5,63.4z M986.3,69.7
		v-2.2l-5.8,0.6c-4,0.4-8.5,1-8.5,5.2c0,3.7,2.9,5.8,6.3,5.8C983.6,79.1,986.3,74.9,986.3,69.7z"/>
	<path class="st1" d="M997.4,73.5h5.4c0.8,4.1,3.9,5.2,6.9,5.2c4.5,0,6.9-1.7,6.9-4.4c0-2.6-1.5-3.8-5.8-4.8l-4-0.9
		c-5-1.1-8.5-3.3-8.5-7.8c0-5.1,5.1-8.5,11.4-8.5c5.6,0,10.4,2.6,11.7,7.8h-5.4c-0.8-2.5-3.5-3.9-6.3-3.9c-3.1,0-6.2,1.5-6.2,4
		c0,2.3,1.9,3.1,5.8,3.9l4,0.9c6,1.3,8.5,4,8.5,8.5c0,5.6-5,8.9-12.1,8.9C1003.3,82.6,998.2,79.5,997.4,73.5z"/>
	<path class="st1" d="M1026.1,73.5h5.4c0.8,4.1,3.9,5.2,6.9,5.2c4.5,0,6.9-1.7,6.9-4.4c0-2.6-1.5-3.8-5.8-4.8l-4-0.9
		c-5-1.1-8.5-3.3-8.5-7.8c0-5.1,5.1-8.5,11.4-8.5c5.6,0,10.4,2.6,11.7,7.8h-5.4c-0.8-2.5-3.5-3.9-6.3-3.9c-3.1,0-6.2,1.5-6.2,4
		c0,2.3,1.9,3.1,5.8,3.9l4,0.9c6,1.3,8.5,4,8.5,8.5c0,5.6-5,8.9-12.1,8.9C1031.9,82.6,1026.9,79.5,1026.1,73.5z"/>
</g>
<g class="st3">
	<path class="st1" d="M1095.8,69.1H1074c0.4,6.3,3.6,9.6,8.4,9.6c4.2,0,6.4-1.9,7.5-5.2h5.4c-1.7,6.2-6.4,9.1-12.9,9.1
		c-8.7,0-13.8-6.4-13.8-15.1c0-8.8,5.1-15.1,13.7-15.1c8.1,0,13.6,5.7,13.6,14.6C1095.9,67.6,1095.9,68.4,1095.8,69.1z M1074,65.1
		h16.5c-0.3-5.2-3.5-8.7-8.2-8.7C1077.7,56.3,1074.7,59.3,1074,65.1z"/>
</g>
<g class="st3">
	<path class="st1" d="M1126.4,82h-5.7l-8.8-12l-8.8,12h-5.7l11.4-15.6L1098.5,53h5.7l7.7,10l7.7-10h5.7L1115,66.4L1126.4,82z"/>
	<path class="st1" d="M1158.8,67.5c0,8.9-5.3,15.1-12.3,15.1c-4.3,0-8.4-2.8-10.2-6.9v16.9h-5.3V53.1h5.3v7
		c1.3-3.9,4.8-7.6,10.2-7.6C1153.4,52.5,1158.8,58.6,1158.8,67.5z M1153.4,67.5c0-6.8-3.1-11.2-8.6-11.2s-8.7,4.4-8.7,11.2
		s3.2,11.2,8.7,11.2C1150.2,78.7,1153.4,74.3,1153.4,67.5z"/>
	<path class="st1" d="M1190.9,69.1H1169c0.4,6.3,3.6,9.6,8.4,9.6c4.2,0,6.4-1.9,7.5-5.2h5.4c-1.7,6.2-6.4,9.1-12.9,9.1
		c-8.7,0-13.8-6.4-13.8-15.1c0-8.8,5.1-15.1,13.7-15.1c8.1,0,13.6,5.7,13.6,14.6C1191,67.6,1190.9,68.4,1190.9,69.1z M1169,65.1
		h16.5c-0.3-5.2-3.5-8.7-8.2-8.7C1172.8,56.3,1169.7,59.3,1169,65.1z"/>
	<path class="st1" d="M1202.8,59.3c1.3-4,4.2-6.8,9.5-6.8v5.2h-1.6c-5.3,0-7.9,1.7-7.9,6.9V82h-5.3V53.1h5.3V59.3z"/>
	<path class="st1" d="M1217.5,48.1V41h5.7v7.1H1217.5z M1217.7,82V53.1h5.3V82H1217.7z"/>
	<path class="st1" d="M1256.8,69.1H1235c0.4,6.3,3.6,9.6,8.4,9.6c4.2,0,6.4-1.9,7.5-5.2h5.4c-1.7,6.2-6.4,9.1-12.9,9.1
		c-8.7,0-13.8-6.4-13.8-15.1c0-8.8,5.1-15.1,13.7-15.1c8.1,0,13.6,5.7,13.6,14.6C1257,67.6,1256.9,68.4,1256.8,69.1z M1235,65.1
		h16.5c-0.3-5.2-3.5-8.7-8.2-8.7C1238.8,56.3,1235.7,59.3,1235,65.1z"/>
	<path class="st1" d="M1287.9,64v0.1V82h-5.3V64.9v-0.1c0-5.9-2.7-8.4-6.9-8.4c-4.2,0-6.9,2.6-6.9,8.5V82h-5.3V53.1h5.3V59
		c1.3-3.4,4.1-6.5,9.1-6.5C1284.4,52.5,1287.9,57.5,1287.9,64z"/>
	<path class="st1" d="M1294.2,67.5c0-9,5.5-15.1,14.1-15.1c7.1,0,11.8,4.3,13.1,10.4h-5.4c-0.8-3.6-3.3-6.5-7.7-6.5
		c-5.5,0-8.7,4.4-8.7,11.2s3.2,11.2,8.7,11.2c4.2,0,6.8-2.3,8-6.4h5.4c-1.5,6.6-6.8,10.3-13.4,10.3
		C1299.7,82.6,1294.2,76.5,1294.2,67.5z"/>
	<path class="st1" d="M1353.1,69.1h-21.9c0.4,6.3,3.6,9.6,8.4,9.6c4.2,0,6.4-1.9,7.5-5.2h5.4c-1.7,6.2-6.4,9.1-12.9,9.1
		c-8.7,0-13.8-6.4-13.8-15.1c0-8.8,5.1-15.1,13.7-15.1c8.1,0,13.6,5.7,13.6,14.6C1353.2,67.6,1353.2,68.4,1353.1,69.1z M1331.3,65.1
		h16.5c-0.3-5.2-3.5-8.7-8.2-8.7C1335,56.3,1332,59.3,1331.3,65.1z"/>
</g>
<g class="st3">
	<path class="st1" d="M1359.7,82v-6.5h6.4V82H1359.7z"/>
</g>
<g class="st3">
	<path class="st1" d="M744.4,141.8h18.8v4.9H739v-41h5.5L744.4,141.8L744.4,141.8z"/>
</g>
<g class="st3">
	<path class="st1" d="M765.8,132.2c0-9,5.5-15.1,14.1-15.1s14,6.1,14,15.1s-5.5,15.1-14,15.1C771.3,147.3,765.8,141.2,765.8,132.2z
		 M788.5,132.2c0-6.8-3.1-11.2-8.6-11.2s-8.7,4.4-8.7,11.2s3.2,11.2,8.7,11.2S788.5,139,788.5,132.2z"/>
	<path class="st1" d="M798.7,132.2c0-9,5.5-15.1,14.1-15.1c7.1,0,11.8,4.3,13.1,10.4h-5.4c-0.8-3.6-3.3-6.5-7.7-6.5
		c-5.5,0-8.7,4.4-8.7,11.2s3.2,11.2,8.7,11.2c4.2,0,6.8-2.3,8-6.4h5.4c-1.5,6.6-6.8,10.3-13.4,10.3
		C804.2,147.3,798.7,141.2,798.7,132.2z"/>
	<path class="st1" d="M855.5,128.1v0.1v18.5h-5.3v-5.9c-2,4.1-4.4,6.5-10,6.5c-5.4,0-9.7-3.9-9.7-9.3c0-6.8,6.8-8,11.9-8.6l7.8-0.8
		v-0.5V128c0-3.8-2.1-7-6.7-7c-4,0-6.3,2.5-6.7,5.2h-5.4c0.6-5.5,5.3-9.1,12.1-9.1C852.3,117.2,855.5,122.7,855.5,128.1z
		 M850.2,134.4v-2.2l-5.8,0.6c-4,0.4-8.5,1-8.5,5.2c0,3.7,2.9,5.8,6.3,5.8C847.5,143.8,850.2,139.6,850.2,134.4z"/>
	<path class="st1" d="M863.6,146.7v-41h5.3v41H863.6z"/>
	<path class="st1" d="M916.4,146.7h-6.6l-13.7-15.6v15.6h-5.3v-41h5.3v24.5l13.2-12.4h6.6l-13.7,12.8L916.4,146.7z"/>
	<path class="st1" d="M945,128.7v0.1v17.9h-5.3v-17.1v-0.1c0-5.9-2.7-8.4-6.9-8.4c-4.2,0-6.9,2.6-6.9,8.5v17.1h-5.3v-28.9h5.3v5.9
		c1.3-3.4,4.1-6.5,9.1-6.5C941.5,117.2,945,122.2,945,128.7z"/>
</g>
<g class="st3">
	<path class="st1" d="M951.3,132.2c0-9,5.5-15.1,14.1-15.1s14,6.1,14,15.1s-5.5,15.1-14,15.1S951.3,141.2,951.3,132.2z M974,132.2
		c0-6.8-3.1-11.2-8.6-11.2s-8.7,4.4-8.7,11.2s3.2,11.2,8.7,11.2S974,139,974,132.2z"/>
</g>
<g class="st3">
	<path class="st1" d="M1023.3,117.8h5.1l-7.1,28.9h-10.1l-5.6-28.7l-5.6,28.7h-10.1l-7.1-28.9h5.1l7.1,28.7l5.6-28.7h10l5.6,28.7
		L1023.3,117.8z"/>
	<path class="st1" d="M1033.2,133.6v-4.4h17.1v4.4H1033.2z"/>
	<path class="st1" d="M1082.5,128.7v0.1v17.9h-5.3v-17.1v-0.1c0-5.9-2.7-8.4-6.9-8.4c-4.2,0-6.9,2.6-6.9,8.5v17.1h-5.3v-41h5.3v18
		c1.3-3.4,4.1-6.5,9.1-6.5C1079,117.2,1082.5,122.2,1082.5,128.7z"/>
</g>
<g class="st3">
	<path class="st1" d="M1088.8,132.2c0-9,5.5-15.1,14.1-15.1s14,6.1,14,15.1s-5.5,15.1-14,15.1S1088.8,141.2,1088.8,132.2z
		 M1111.5,132.2c0-6.8-3.1-11.2-8.6-11.2s-8.7,4.4-8.7,11.2s3.2,11.2,8.7,11.2S1111.5,139,1111.5,132.2z"/>
</g>
<g class="st3">
	<path class="st1" d="M1160.8,117.8h5.1l-7.1,28.9h-10.1l-5.6-28.7l-5.6,28.7h-10.1l-7.1-28.9h5.1l7.1,28.7l5.6-28.7h10l5.6,28.7
		L1160.8,117.8z"/>
</g>
<g class="st3">
	<path class="st1" d="M1169.6,146.7v-6.5h6.4v6.5H1169.6z"/>
</g>
</svg>
