<?xml version="1.0" encoding="UTF-8"?>
<svg id="Layer_1" data-name="Layer 1" xmlns="http://www.w3.org/2000/svg" viewBox="0 0 814 280">
  <defs>
    <style>
      .cls-1 {
        fill: #fff;
      }

      .cls-2 {
        fill: #57a57b;
      }
    </style>
  </defs>
  <path class="cls-2" d="M129,140l-38.6-64.82h64.22l38.61,64.87-38.61,64.87h-64.22l38.6-64.92h0ZM64.36,31.88L0,139.99l64.36,108.13h128.71l64.36-108.13L193.07,31.88H64.36Z"/>
  <path class="cls-1" d="M349.99,204.87v-90.1h-49.31v-39.59h156.28v39.64h-49.31v90.11l-57.66-.05h0ZM752.4,75.18l-37.48,36.94-36.23-36.94h-60.14l61.82,61.99-61.99,67.75h60.33l36.94-41.98,36.82,41.98h61.42l-63.62-68.47,63.36-61.27h-61.24,0ZM643.17,140.05c0,20.78-9.33,36.82-23.08,48.02-13.76,11.2-33.37,16.84-58.84,16.84h-93.48V75.18h93.44c25.47,0,45.08,5.62,58.84,16.85,13.76,11.18,23.08,27.18,23.08,47.97l.04.05ZM589.44,140.05c-.02-8.07-3.72-15.7-10.06-20.69-5.78-4.8-14.1-7.23-24.72-7.23h-31.91v55.87h31.91c10.62,0,18.94-2.45,24.72-7.24,6.35-5.02,10.04-12.66,10.03-20.75l.04.05h-.01Z"/>
</svg>