<?xml version="1.0" encoding="UTF-8"?>
<svg id="Layer_1" data-name="Layer 1" xmlns="http://www.w3.org/2000/svg" version="1.1" viewBox="0 0 827 260">
  <defs>
    <style>
      .cls-1 {
        fill: #57a57b;
      }

      .cls-1, .cls-2 {
        stroke-width: 0px;
      }

      .cls-2 {
        fill: #fff;
      }
    </style>
  </defs>
  <path class="cls-1" d="M129.3,130l-38.6-64.8h64.2l38.6,64.9-38.6,64.9h-64.2l38.6-64.9h0ZM64.7,21.9L.3,130l64.4,108.1h128.7l64.4-108.1L193.4,21.9H64.7Z"/>
  <path class="cls-2" d="M350.3,194.9v-90.1h-49.3v-39.6h156.3v39.6h-49.3v90.1h-57.7ZM752.7,65.2l-37.5,36.9-36.2-36.9h-60.1l61.8,62-62,67.8h60.3l36.9-42,36.8,42h61.4l-63.6-68.5,63.4-61.3h-61.2,0ZM643.5,130.1c0,20.8-9.3,36.8-23.1,48-13.8,11.2-33.4,16.8-58.8,16.8h-93.5V65.2h93.4c25.5,0,45.1,5.6,58.8,16.8,13.8,11.2,23.1,27.2,23.1,48h0ZM589.7,130.1c0-8.1-3.7-15.7-10.1-20.7-5.8-4.8-14.1-7.2-24.7-7.2h-31.9v55.9h31.9c10.6,0,18.9-2.4,24.7-7.2,6.3-5,10-12.7,10-20.8h0c0,0,0,0,0,0Z"/>
</svg>