<?xml version="1.0" encoding="UTF-8"?><svg xmlns="http://www.w3.org/2000/svg" viewBox="0 0 280.79 31.51"><defs><style>.d{fill:#fff;}.e{fill:#57a57b;}</style></defs><g id="a"/><g id="b"><g id="c"><g><path class="d" d="M26.24,.56V7.76h-8.68V30.96H8.64V7.76H0V.56H26.24Z"/><path class="d" d="M47.64,30.96l-5.96-10.28h-3.48v10.28h-8.92V.56h13.08c8.08,0,13.04,4,13.04,10.12,0,3.72-1.8,6.68-5.16,8.36l7.4,11.92h-10ZM38.2,7.48v6.36h4.12c2.56,0,3.92-1.32,3.92-3.16s-1.36-3.2-3.92-3.2h-4.12Z"/><path class="d" d="M82.08,30.96l-1.92-7.04h-11.16l-1.92,7.04h-9.32L66.92,.56h15.36l9.12,30.39h-9.32Zm-11.12-14.24h7.24l-3.6-13.28-3.64,13.28Z"/><path class="d" d="M105.76,.56c9.4,0,15.88,4.52,15.88,15.2s-6.48,15.2-15.88,15.2h-12.2V.56h12.2Zm.2,23.2c4.16,0,6.52-2.8,6.52-8s-2.36-8-6.52-8h-3.48v16h3.48Z"/><path class="d" d="M134.2,23.76h13.72v7.2h-22.64V.56h22.28V7.76h-13.36v4.12h13.08v7.2h-13.08v4.68Z"/><path class="e" d="M164.2,.56c9.4,0,15.88,4.52,15.88,15.2s-6.48,15.2-15.88,15.2h-12.2V.56h12.2Zm.2,23.2c4.16,0,6.52-2.8,6.52-8s-2.36-8-6.52-8h-3.48v16h3.48Z"/><path class="e" d="M182.48,15.76c0-9.84,6.6-15.76,16-15.76s16.04,5.92,16.04,15.76-6.6,15.76-16.04,15.76-16-5.92-16-15.76Zm22.88,0c0-5.68-2.68-8.92-6.88-8.92s-6.84,3.24-6.84,8.92,2.64,8.92,6.84,8.92,6.88-3.24,6.88-8.92Z"/><path class="e" d="M216.84,15.76c0-9.84,6.6-15.76,16-15.76s16.04,5.92,16.04,15.76-6.6,15.76-16.04,15.76-16-5.92-16-15.76Zm22.88,0c0-5.68-2.68-8.92-6.88-8.92s-6.84,3.24-6.84,8.92,2.64,8.92,6.84,8.92,6.88-3.24,6.88-8.92Z"/><path class="e" d="M270.79,30.96l-5.96-10.28h-3.48v10.28h-8.92V.56h13.08c8.08,0,13.04,4,13.04,10.12,0,3.72-1.8,6.68-5.16,8.36l7.4,11.92h-10Zm-9.44-23.48v6.36h4.12c2.56,0,3.92-1.32,3.92-3.16s-1.36-3.2-3.92-3.2h-4.12Z"/></g></g></g></svg>