<?xml version="1.0" encoding="UTF-8"?><svg id="Layer_1" xmlns="http://www.w3.org/2000/svg" viewBox="0 0 150 35"><defs><style>.cls-1{fill:#fff;}.cls-2{fill:#ffd200;}.cls-3{fill:none;stroke:#fff;stroke-miterlimit:40;stroke-width:1.29px;}.cls-4{fill:#ee3124;fill-rule:evenodd;}</style></defs><g><path class="cls-1" d="M63.51,18.65c-.4-.33-.91-.55-1.43-.55-.4,0-.93,.23-.93,.7s.58,.67,.96,.79l.55,.17c1.16,.34,2.05,.93,2.05,2.27,0,.83-.2,1.68-.86,2.24-.65,.55-1.52,.78-2.36,.78-1.05,0-2.07-.35-2.92-.95l.93-1.74c.54,.47,1.18,.86,1.92,.86,.51,0,1.05-.25,1.05-.84s-.85-.82-1.31-.95c-1.36-.39-2.25-.74-2.25-2.35s1.2-2.79,2.87-2.79c.84,0,1.87,.26,2.6,.68l-.86,1.68Z"/><path class="cls-1" d="M67.65,15.67v4.22h.02c.46-.62,1.03-.9,1.81-.9,1.43,0,2.13,.95,2.13,2.38v3.47h-2.01v-2.9c0-.66-.1-1.35-.9-1.35s-1.05,.68-1.05,1.35v2.9h-2.01V15.67h2.01Z"/><path class="cls-1" d="M78.7,22.33h-4.23c0,.82,.43,1.26,1.26,1.26,.43,0,.74-.14,.96-.52h1.93c-.32,1.34-1.59,1.94-2.88,1.94-1.88,0-3.28-1.06-3.28-3.01s1.29-3.02,3.13-3.02c1.96,0,3.1,1.21,3.1,3.15v.21Zm-1.87-1.16c-.1-.54-.6-.89-1.14-.89-.58,0-1.07,.31-1.19,.89h2.33Z"/><path class="cls-1" d="M81.57,24.83h-2.01V15.67h2.01v9.16Z"/><path class="cls-1" d="M84.84,24.83h-2.01V15.67h2.01v9.16Z"/><path class="cls-1" d="M92.05,22.99h2.59v1.83h-4.76v-8.32h2.16v6.49Z"/><path class="cls-1" d="M97.23,19.16v3.02c0,.72,.18,1.22,1,1.22s1-.51,1-1.22v-3.02h2.01v3.41c0,1.86-1.31,2.44-3.01,2.44s-3.01-.57-3.01-2.44v-3.41h2.01Z"/><path class="cls-1" d="M102.4,15.67h2.01v4.05c.43-.5,1.1-.74,1.75-.74,1.68,0,2.84,1.39,2.84,3.01s-1.17,3.02-2.86,3.02c-.66,0-1.35-.25-1.71-.82h-.02v.63h-2.01V15.67Zm1.94,6.33c0,.72,.47,1.27,1.29,1.27s1.29-.55,1.29-1.27-.47-1.28-1.29-1.28-1.29,.58-1.29,1.28Z"/><path class="cls-1" d="M111.95,20.09h.02c.39-.7,1.05-1,1.83-1h.39v1.93c-.28-.15-.54-.19-.85-.19-1.11,0-1.39,.74-1.39,1.71v2.28h-2.01v-5.66h2.01v.93Z"/><path class="cls-1" d="M117.01,16.99c0,.62-.51,1.13-1.13,1.13s-1.13-.51-1.13-1.13,.51-1.13,1.13-1.13,1.13,.51,1.13,1.13Zm-.12,7.84h-2.01v-5.66h2.01v5.66Z"/><path class="cls-1" d="M122.24,21.01c-.3-.22-.65-.4-1.04-.4-.77,0-1.38,.6-1.38,1.38s.58,1.39,1.41,1.39c.35,0,.74-.14,1-.39v1.7c-.44,.22-.93,.32-1.41,.32-1.68,0-3.08-1.25-3.08-2.96,0-1.82,1.39-3.08,3.17-3.08,.46,0,.93,.11,1.32,.33v1.7Z"/><path class="cls-1" d="M129.63,24.83h-2.01v-.63h-.02c-.35,.56-1.05,.82-1.71,.82-1.68,0-2.86-1.4-2.86-3.02s1.16-3.01,2.84-3.01c.65,0,1.34,.24,1.75,.74v-.55h2.01v5.66Zm-4.52-2.83c0,.72,.47,1.27,1.29,1.27s1.29-.55,1.29-1.27-.47-1.28-1.29-1.28-1.29,.58-1.29,1.28Z"/><path class="cls-1" d="M132.92,19.89h.02c.46-.68,1.03-.92,1.81-.92,1.52,0,2.13,.96,2.13,2.35v3.5h-2.01v-2.76c0-.54,.09-1.49-.9-1.49-.82,0-1.05,.61-1.05,1.31v2.94h-2.01v-5.66h2.01v.73Z"/><path class="cls-1" d="M140.34,24.83h-2.01v-4.01h-.65v-1.66h.65v-1.7h2.01v1.7h1.14v1.66h-1.14v4.01Z"/><path class="cls-1" d="M145.81,20.62c-.31-.17-.74-.28-1.08-.28-.23,0-.63,.1-.63,.39,0,.39,.63,.44,.91,.5,.94,.19,1.64,.63,1.64,1.68,0,1.49-1.36,2.11-2.67,2.11-.81,0-1.6-.23-2.28-.65l.73-1.4c.41,.29,1.09,.57,1.59,.57,.25,0,.63-.12,.63-.43,0-.44-.63-.46-1.26-.63-.63-.17-1.26-.47-1.26-1.49,0-1.39,1.26-2.01,2.49-2.01,.64,0,1.28,.1,1.87,.36l-.67,1.28Z"/></g><g><path class="cls-3" d="M19.57,33.58H10.25l-.86-6.91-5.66-4.11c-.25-1.21-.37-2.44-.37-3.68C3.35,8.73,11.59,.5,21.73,.5s18.38,8.23,18.38,18.38c0,1.23-.12,2.47-.37,3.68l-5.66,4.11-.86,6.91h-9.33l-.54,.39c-.47,.34-1.04,.53-1.62,.53s-1.15-.18-1.62-.53l-.54-.39Z"/><path class="cls-2" d="M19.57,33.58H10.25l-.86-6.91-5.66-4.11c-.25-1.21-.37-2.44-.37-3.68C3.35,8.73,11.59,.5,21.73,.5s18.38,8.23,18.38,18.38c0,1.23-.12,2.47-.37,3.68l-5.66,4.11-.86,6.91h-9.33l-.54,.39c-.47,.34-1.04,.53-1.62,.53s-1.15-.18-1.62-.53l-.54-.39Z"/><path class="cls-4" d="M19.57,33.58H10.25l-.86-6.91-5.66-4.11c-.25-1.21-.37-2.44-.37-3.68C3.35,8.73,11.59,.5,21.73,.5s18.38,8.23,18.38,18.38c0,1.23-.12,2.47-.37,3.68l-5.66,4.11-.86,6.91h-9.33l-.54,.39c-.47,.34-1.04,.53-1.62,.53s-1.15-.18-1.62-.53l-.54-.39Zm.29-3.22h-6.78l-.69-5.48-5.58-4.06c-.16-.64-.25-1.29-.25-1.95,0-1.1,.23-2.18,.68-3.18l9.89,10L7.52,13.83c.38-1.54,1.22-2.93,2.4-3.98l8.62,14.87L10.91,8.44c.99-1.31,2.37-2.28,3.94-2.77l5.27,18.46-3.85-19.22c1.17-.66,2.49-1.01,3.84-1.01,.28,0,.57,.02,.85,.05l.78,19.99,.78-19.99c.28-.03,.57-.05,.85-.05,1.34,0,2.67,.35,3.84,1.01l-3.85,19.22L28.62,5.67c1.57,.49,2.95,1.45,3.94,2.77l-7.63,16.28,8.61-14.87c1.19,1.05,2.02,2.44,2.4,3.98l-9.61,11.87,9.89-10c.45,1,.68,2.09,.68,3.18,0,.66-.08,1.31-.25,1.95l-5.58,4.06-.68,5.48h-6.78l-1,.73c-.25,.18-.55,.28-.86,.28s-.61-.1-.86-.28l-1-.73Z"/></g></svg>