<?xml version="1.0" encoding="UTF-8"?><svg id="Layer_1" xmlns="http://www.w3.org/2000/svg" viewBox="0 0 140 35"><defs><style>.cls-1{fill:#005092;}.cls-2{fill:#fff;}.cls-3{fill:#ffd300;}.cls-4{fill:#e42313;}.cls-5{fill-rule:evenodd;}</style></defs><path class="cls-2" d="M7.92,26.1l.84,6.47h8.73l.47,.33c.49,.33,1.07,.5,1.66,.5,.57,.01,1.13-.14,1.62-.43l.58-.39h8.67l.81-6.47,5.09-3.74c.27-1.08,.4-2.2,.38-3.32C36.76,8.98,28.93,1.6,19.63,1.6S2.5,9.41,2.5,19.04c0,1.13,.14,2.26,.41,3.35l5.01,3.69"/><path class="cls-3" d="M3.42,22.06c-.26-1.06-.37-2.15-.34-3.24C2.9,9.69,10.16,2.13,19.3,1.94c9.14-.18,16.7,7.08,16.88,16.22v.67c.04,1.09-.08,2.18-.34,3.24l-5.1,3.71-.77,6.21h-8.4l-.54,.4c-.41,.29-.9,.44-1.41,.43-.54-.01-1.07-.2-1.49-.54l-.43-.29H9.26l-.79-6.21-5.05-3.72"/><path class="cls-4" d="M3.42,22.06c-.26-1.06-.37-2.15-.34-3.24C2.9,9.69,10.16,2.13,19.3,1.94c9.14-.18,16.7,7.08,16.88,16.22v.67c.04,1.09-.08,2.18-.34,3.24l-5.1,3.71-.77,6.21h-8.4l-.54,.4c-.41,.29-.9,.44-1.41,.43-.54-.02-1.07-.21-1.49-.54l-.43-.29H9.26l-.79-6.21-5.05-3.72m14.56,7.01l.71,.54c.27,.21,.6,.34,.94,.37,.34-.03,.67-.15,.94-.37l.71-.54h6.17l.64-5.1,4.9-3.59c.17-.56,.25-1.13,.23-1.71,0-.94-.21-1.88-.58-2.74v-.03l-8.89,8.96,8.54-10.54c-.29-1.4-1.01-2.67-2.06-3.64l-.04-.04-7.68,13.33,6.76-14.56-.04-.05c-.86-1.18-2.07-2.06-3.46-2.5l-4.71,16.57,3.4-17.25c-1.06-.59-2.25-.89-3.47-.89-.26,0-.51,.01-.77,.05l-.63,17.95-.83-17.93c-.24-.03-.48-.04-.73-.04-1.19,0-2.36,.31-3.39,.9l-.07,.04,3.6,17.22L13.46,6.91c-1.41,.44-2.65,1.33-3.51,2.53l6.83,14.56-7.64-13.48c-1.13,.97-1.92,2.28-2.26,3.73l8.59,10.64L6.57,15.89v.04c-.4,.9-.6,1.87-.59,2.85,0,.59,.08,1.17,.23,1.74l5.03,3.66,.62,4.96,6.13-.05Z"/><path class="cls-5" d="M61.5,10.08h-.06s0-.04,0-.06v-.05s.09-.03,.12,0c0,.02,0,.04,0,.05,0,.02,0,.04,0,.06h-.06"/><path class="cls-1" d="M57.41,11.94c-.4-.34-.91-.53-1.44-.54-.4,0-.93,.24-.93,.7s.59,.67,.97,.8l.54,.17c1.16,.35,2.06,.93,2.06,2.28,.06,.84-.25,1.67-.86,2.25-.68,.53-1.51,.81-2.37,.79-1.05-.01-2.08-.35-2.94-.95l.93-1.75c.52,.51,1.2,.82,1.93,.86,.54,0,1.08-.25,1.08-.84s-.86-.82-1.32-.95c-1.36-.39-2.26-.74-2.26-2.36-.06-1.49,1.09-2.75,2.58-2.81h0c.1,0,.2,0,.3,0,.91,.02,1.81,.25,2.62,.69l-.87,1.67Z"/><path class="cls-1" d="M61.37,8.94v4.25h0c.41-.59,1.1-.92,1.82-.89,1.45,0,2.16,.95,2.16,2.39v3.48h-2.02v-2.95c0-.67-.1-1.35-.91-1.35s-1.08,.68-1.08,1.35v2.92h-2.02V8.94h2.05Z"/><path class="cls-1" d="M72.22,15.64h-4.24c-.08,.62,.36,1.18,.98,1.26,.09,.01,.19,.01,.29,0,.4,.03,.78-.18,.97-.54h1.95c-.32,1.34-1.62,1.95-2.9,1.95-1.88,0-3.29-1.08-3.29-3.03s1.29-3.04,3.15-3.04c1.97,0,3.11,1.22,3.11,3.16v.23Zm-1.88-1.18c-.16-.65-.82-1.04-1.47-.87-.43,.11-.76,.45-.87,.87h2.34Z"/><rect class="cls-1" x="72.87" y="8.94" width="2.02" height="9.2"/><rect class="cls-1" x="75.94" y="8.94" width="2.02" height="9.2"/><polygon class="cls-1" points="84.75 16.3 87.36 16.3 87.36 18.15 82.58 18.15 82.58 9.78 84.75 9.78 84.75 16.3"/><path class="cls-1" d="M89.73,12.46v3.04c0,.72,.18,1.23,1.01,1.23s1.01-.51,1.01-1.23v-3.04h2.02v3.43c0,1.88-1.32,2.45-3.02,2.45s-3.03-.58-3.03-2.45v-3.43h2.02Z"/><path class="cls-1" d="M94.71,8.94h2.02v4.07c.45-.49,1.1-.76,1.76-.74,1.68,.12,2.93,1.58,2.81,3.25-.11,1.5-1.31,2.7-2.81,2.81-.68,.04-1.34-.28-1.74-.83h0v.64h-2.02l-.02-9.2Zm1.95,6.36c-.05,.72,.5,1.33,1.21,1.38s1.33-.5,1.38-1.21c.05-.72-.5-1.33-1.21-1.38-.06,0-.11,0-.17,0-.65,.04-1.17,.56-1.21,1.21"/><path class="cls-1" d="M104.08,13.38h.03c.37-.66,1.08-1.05,1.84-1.01h.39v1.94c-.26-.14-.56-.21-.86-.19-1.12,0-1.4,.74-1.4,1.72v2.3h-2.02v-5.68h2.02v.92Z"/><path class="cls-1" d="M108.95,10.27c0,.63-.51,1.13-1.13,1.13-.63,0-1.13-.51-1.13-1.13s.51-1.13,1.13-1.13c.63,0,1.13,.51,1.13,1.13h0m-.12,7.87h-2.02v-5.69h2.02v5.69Z"/><path class="cls-1" d="M113.98,14.31c-.3-.24-.66-.38-1.05-.4-.75,0-1.37,.59-1.39,1.34v.04c-.03,.74,.55,1.37,1.3,1.4h.12c.37,0,.73-.14,1.01-.39v1.71c-.44,.21-.93,.33-1.42,.32-1.65,.05-3.03-1.25-3.08-2.9h0s0-.06,0-.09c-.02-1.68,1.32-3.07,3-3.1h.18c.47,0,.92,.11,1.33,.33v1.73Z"/><path class="cls-1" d="M121.12,18.15h-2.02v-.64h0c-.4,.55-1.04,.86-1.72,.82-1.62-.03-2.9-1.36-2.87-2.98h0v-.06c-.07-1.6,1.17-2.95,2.77-3.02h.09c.67-.02,1.31,.25,1.76,.74v-.54h2.02l-.02,5.68Zm-4.55-2.84c-.05,.72,.5,1.33,1.21,1.38s1.33-.5,1.38-1.21c.05-.72-.5-1.33-1.21-1.38-.06,0-.11,0-.17,0-.65,.04-1.17,.56-1.21,1.21"/><path class="cls-1" d="M124.14,13.19h0c.4-.61,1.1-.95,1.82-.89,1.53,0,2.16,.97,2.16,2.36v3.52h-2.02v-2.8c0-.54,.09-1.49-.91-1.49-.82,0-1.08,.61-1.08,1.32v2.92h-2.02v-5.67h2.02l.03,.73Z"/><polygon class="cls-1" points="131.39 18.15 129.37 18.15 129.37 14.12 128.72 14.12 128.72 12.46 129.37 12.46 129.37 10.75 131.39 10.75 131.39 12.46 132.53 12.46 132.53 14.12 131.39 14.12 131.39 18.15"/><path class="cls-1" d="M136.65,13.92c-.33-.17-.7-.27-1.08-.27-.24,0-.64,.1-.64,.39,0,.39,.64,.44,.91,.5,.94,.19,1.65,.63,1.65,1.69,0,1.49-1.36,2.12-2.7,2.12-.8,0-1.58-.23-2.26-.64l.73-1.41c.48,.33,1.04,.53,1.62,.58,.25,0,.63-.12,.63-.43,0-.44-.63-.47-1.26-.63-.78-.06-1.36-.74-1.32-1.52,0-1.4,1.27-2.02,2.51-2.02,.64-.02,1.28,.11,1.87,.37l-.67,1.28Z"/><path class="cls-1" d="M52.64,20.7h3.08c2.31-.08,4.25,1.72,4.33,4.03,.08,2.31-1.72,4.25-4.03,4.33-.1,0-.2,0-.3,0h-3.08v-8.36Zm2.16,6.52h.49c1.3,0,2.4-.71,2.4-2.34,.08-1.21-.84-2.26-2.05-2.34-.11,0-.22,0-.33,0h-.51v4.68Z"/><path class="cls-1" d="M62.8,21.19c0,.63-.51,1.13-1.13,1.13s-1.13-.51-1.13-1.13,.51-1.13,1.13-1.13h0c.62,0,1.13,.5,1.13,1.13h0m-.12,7.87h-2.02v-5.68h2.02v5.68Z"/><path class="cls-1" d="M67.49,24.83c-.33-.17-.7-.27-1.08-.27-.23,0-.64,.1-.64,.39,0,.39,.64,.44,.91,.5,.94,.19,1.65,.63,1.65,1.69,0,1.49-1.36,2.12-2.7,2.12-.81,0-1.61-.23-2.3-.66l.73-1.38c.48,.32,1.04,.51,1.62,.54,.25,0,.63-.12,.63-.43,0-.44-.63-.47-1.26-.63-.75-.09-1.3-.74-1.27-1.5,0-1.4,1.27-2.02,2.51-2.02,.64-.02,1.29,.11,1.88,.37l-.68,1.29Z"/><polygon class="cls-1" points="71.35 29.05 69.33 29.05 69.33 25.03 68.67 25.03 68.67 23.37 69.33 23.37 69.33 21.66 71.35 21.66 71.35 23.37 72.49 23.37 72.49 25.03 71.35 25.03 71.35 29.05"/><path class="cls-1" d="M74.93,24.3h0c.37-.66,1.09-1.05,1.84-1.01h.38v1.95c-.26-.14-.56-.21-.85-.19-1.12,0-1.4,.74-1.4,1.72v2.3h-1.99v-5.7h2.02v.93Z"/><path class="cls-1" d="M79.8,21.19c0,.63-.51,1.13-1.13,1.13s-1.13-.51-1.13-1.13,.51-1.13,1.13-1.13c.63,0,1.13,.51,1.13,1.13h0m-.12,7.87h-2.02v-5.68h2.02v5.68Z"/><path class="cls-1" d="M80.66,19.85h2.02v4.07c.45-.49,1.1-.76,1.76-.74,1.68,.07,2.98,1.49,2.9,3.16-.07,1.58-1.33,2.84-2.9,2.9-.67,.03-1.32-.28-1.71-.82h0v.64h-2.02l-.05-9.2Zm1.95,6.36c-.05,.72,.5,1.33,1.21,1.38s1.33-.5,1.38-1.21c.05-.72-.5-1.33-1.21-1.38-.06,0-.11,0-.17,0-.65,.04-1.17,.56-1.21,1.21"/><path class="cls-1" d="M90,23.37v3.04c0,.72,.18,1.23,1.01,1.23s1.01-.51,1.01-1.23v-3.04h2.02v3.42c0,1.88-1.32,2.45-3.02,2.45s-3.03-.58-3.03-2.45v-3.42h2.02Z"/><polygon class="cls-1" points="97.25 29.05 95.23 29.05 95.23 25.03 94.58 25.03 94.58 23.37 95.23 23.37 95.23 21.66 97.25 21.66 97.25 23.37 98.39 23.37 98.39 25.03 97.25 25.03 97.25 29.05"/><path class="cls-1" d="M105.24,26.22c0,1.93-1.62,3.03-3.42,3.03s-3.43-1.08-3.43-3.03,1.62-3.04,3.43-3.04,3.42,1.08,3.42,3.04m-4.72,0c-.05,.72,.5,1.33,1.21,1.38s1.33-.5,1.38-1.21c.05-.72-.5-1.33-1.21-1.38-.06,0-.11,0-.17,0-.65,.04-1.17,.56-1.21,1.21"/><path class="cls-1" d="M107.89,24.3h0c.37-.66,1.08-1.05,1.84-1.01h.39v1.95c-.26-.14-.56-.21-.85-.19-1.12,0-1.4,.74-1.4,1.72v2.3h-2.02v-5.7h2.02l.02,.93Z"/></svg>