<?xml version="1.0" encoding="UTF-8"?>
<svg id="Layer_1" xmlns="http://www.w3.org/2000/svg" version="1.1" viewBox="0 0 140 34">
  <!-- Generator: Adobe Illustrator 30.4.0, SVG Export Plug-In . SVG Version: 2.1.4 Build 226)  -->
  <defs>
    <style>
      .st0 {
        fill: #e42313;
      }

      .st1 {
        fill: #ffd300;
      }

      .st2 {
        fill: #fff;
      }
    </style>
  </defs>
  <path class="st2" d="M7.9,25.6l.8,6.5h8.7l.5.3c.5.3,1.1.5,1.7.5.6,0,1.1-.1,1.6-.4l.6-.4h8.7l.8-6.5,5.1-3.7c.3-1.1.4-2.2.4-3.3,0-10.1-7.8-17.5-17.1-17.5S2.5,8.9,2.5,18.5s.1,2.3.4,3.4l5,3.7"/>
  <path class="st1" d="M3.4,21.6c-.3-1.1-.4-2.1-.3-3.2C2.9,9.2,10.2,1.6,19.3,1.4c9.1-.2,16.7,7.1,16.9,16.2v.7c0,1.1,0,2.2-.3,3.2l-5.1,3.7-.8,6.2h-8.4l-.5.4c-.4.3-.9.4-1.4.4-.5,0-1.1-.2-1.5-.5l-.4-.3h-8.4l-.8-6.2-5.1-3.7"/>
  <path class="st0" d="M3.4,21.6c-.3-1.1-.4-2.1-.3-3.2C2.9,9.2,10.2,1.6,19.3,1.4c9.1-.2,16.7,7.1,16.9,16.2v.7c0,1.1,0,2.2-.3,3.2l-5.1,3.7-.8,6.2h-8.4l-.5.4c-.4.3-.9.4-1.4.4-.5,0-1.1-.2-1.5-.5l-.4-.3h-8.4l-.8-6.2-5.1-3.7M18,28.6l.7.5c.3.2.6.3.9.4.3,0,.7-.1.9-.4l.7-.5h6.2l.6-5.1,4.9-3.6c.2-.6.2-1.1.2-1.7,0-.9-.2-1.9-.6-2.7h0s-8.9,8.9-8.9,8.9l8.5-10.5c-.3-1.4-1-2.7-2.1-3.6h0s-7.7,13.3-7.7,13.3l6.8-14.6h0c-.9-1.2-2.1-2.1-3.5-2.6l-4.7,16.6,3.4-17.2c-1.1-.6-2.2-.9-3.5-.9s-.5,0-.8,0l-.6,18-.8-17.9c-.2,0-.5,0-.7,0-1.2,0-2.4.3-3.4.9h0s3.6,17.3,3.6,17.3L13.5,6.4c-1.4.4-2.7,1.3-3.5,2.5l6.8,14.6-7.6-13.5c-1.1,1-1.9,2.3-2.3,3.7l8.6,10.6L6.6,15.4h0c-.4.9-.6,1.9-.6,2.9,0,.6,0,1.2.2,1.7l5,3.7.6,5h6.1s0,0,0,0Z"/>
  <path class="st2" d="M57.4,11.4c-.4-.3-.9-.5-1.4-.5-.4,0-.9.2-.9.7s.6.7,1,.8l.5.2c1.2.4,2.1.9,2.1,2.3,0,.8-.2,1.7-.9,2.2-.7.5-1.5.8-2.4.8-1,0-2.1-.4-2.9-1l.9-1.8c.5.5,1.2.8,1.9.9.5,0,1.1-.2,1.1-.8s-.9-.8-1.3-.9c-1.4-.4-2.3-.7-2.3-2.4,0-1.5,1.1-2.8,2.6-2.8h.3c.9,0,1.8.2,2.6.7l-.9,1.7h0Z"/>
  <path class="st2" d="M61.4,8.4v4.2h0c.4-.6,1.1-.9,1.8-.9,1.5,0,2.2.9,2.2,2.4v3.5h-2v-2.9c0-.7,0-1.4-.9-1.4s-1.1.7-1.1,1.4v2.9h-2v-9.2h2.1Z"/>
  <path class="st2" d="M72.2,15.1h-4.2c0,.6.4,1.2,1,1.3,0,0,.2,0,.3,0,.4,0,.8-.2,1-.5h1.9c-.3,1.3-1.6,2-2.9,2-1.9,0-3.3-1.1-3.3-3s1.3-3,3.2-3,3.1,1.2,3.1,3.2v.2h0ZM70.3,14c-.2-.6-.8-1-1.5-.9-.4.1-.8.4-.9.9h2.3Z"/>
  <rect class="st2" x="72.9" y="8.4" width="2" height="9.2"/>
  <rect class="st2" x="75.9" y="8.4" width="2" height="9.2"/>
  <polygon class="st2" points="84.8 15.8 87.4 15.8 87.4 17.7 82.6 17.7 82.6 9.3 84.8 9.3 84.8 15.8"/>
  <path class="st2" d="M89.7,12v3c0,.7.2,1.2,1,1.2s1-.5,1-1.2v-3h2v3.4c0,1.9-1.3,2.4-3,2.4s-3-.6-3-2.4v-3.4h2,0Z"/>
  <path class="st2" d="M94.7,8.4h2v4.1c.4-.5,1.1-.8,1.8-.7,1.7.1,2.9,1.6,2.8,3.2-.1,1.5-1.3,2.7-2.8,2.8-.7,0-1.3-.3-1.7-.8h0v.6h-2s0-9.2,0-9.2ZM96.7,14.8c0,.7.5,1.3,1.2,1.4s1.3-.5,1.4-1.2c0-.7-.5-1.3-1.2-1.4h-.2c-.7,0-1.2.6-1.2,1.2"/>
  <path class="st2" d="M104.1,12.9h0c.4-.7,1.1-1.1,1.8-1h.4v1.9c-.3-.1-.6-.2-.9-.2-1.1,0-1.4.7-1.4,1.7v2.3h-2v-5.7h2s0,.9,0,.9Z"/>
  <path class="st2" d="M108.9,9.8c0,.6-.5,1.1-1.1,1.1s-1.1-.5-1.1-1.1.5-1.1,1.1-1.1,1.1.5,1.1,1.1h0M108.8,17.6h-2v-5.7h2v5.7Z"/>
  <path class="st2" d="M114,13.8c-.3-.2-.7-.4-1.1-.4-.8,0-1.4.6-1.4,1.3h0c0,.8.6,1.4,1.3,1.4h.1c.4,0,.7-.1,1-.4v1.7c-.4.2-.9.3-1.4.3-1.7,0-3-1.2-3.1-2.9h0c0-1.8,1.3-3.2,3-3.2h.2c.5,0,.9.1,1.3.3v1.7h0Z"/>
  <path class="st2" d="M121.1,17.7h-2v-.6h0c-.4.5-1,.9-1.7.8-1.6,0-2.9-1.4-2.9-3h0c0-1.7,1.2-3,2.8-3.1h0c.7,0,1.3.2,1.8.7v-.5h2v5.7h0ZM116.6,14.8c0,.7.5,1.3,1.2,1.4s1.3-.5,1.4-1.2c0-.7-.5-1.3-1.2-1.4h-.2c-.7,0-1.2.6-1.2,1.2"/>
  <path class="st2" d="M124.1,12.7h0c.4-.6,1.1-.9,1.8-.9,1.5,0,2.2,1,2.2,2.4v3.5h-2v-2.8c0-.5,0-1.5-.9-1.5s-1.1.6-1.1,1.3v2.9h-2v-5.7h2s0,.7,0,.7Z"/>
  <polygon class="st2" points="131.4 17.7 129.4 17.7 129.4 13.6 128.7 13.6 128.7 12 129.4 12 129.4 10.3 131.4 10.3 131.4 12 132.5 12 132.5 13.6 131.4 13.6 131.4 17.7"/>
  <path class="st2" d="M136.6,13.4c-.3-.2-.7-.3-1.1-.3s-.6.1-.6.4.6.4.9.5c.9.2,1.6.6,1.6,1.7s-1.4,2.1-2.7,2.1-1.6-.2-2.3-.6l.7-1.4c.5.3,1,.5,1.6.6.2,0,.6-.1.6-.4,0-.4-.6-.5-1.3-.6-.8,0-1.4-.7-1.3-1.5,0-1.4,1.3-2,2.5-2,.6,0,1.3.1,1.9.4l-.7,1.3h0Z"/>
  <path class="st2" d="M52.6,20.2h3.1c2.3,0,4.2,1.7,4.3,4,0,2.3-1.7,4.2-4,4.3h-3.4s0-8.4,0-8.4ZM54.8,26.7h.5c1.3,0,2.4-.7,2.4-2.3,0-1.2-.8-2.3-2-2.3h-.8s0,4.7,0,4.7Z"/>
  <path class="st2" d="M62.8,20.7c0,.6-.5,1.1-1.1,1.1s-1.1-.5-1.1-1.1.5-1.1,1.1-1.1h0c.6,0,1.1.5,1.1,1.1h0M62.7,28.6h-2v-5.7h2v5.7Z"/>
  <path class="st2" d="M67.5,24.3c-.3-.2-.7-.3-1.1-.3s-.6.1-.6.4.6.4.9.5c.9.2,1.7.6,1.7,1.7s-1.4,2.1-2.7,2.1-1.6-.2-2.3-.7l.7-1.4c.5.3,1,.5,1.6.5.2,0,.6-.1.6-.4,0-.4-.6-.5-1.3-.6-.8,0-1.3-.7-1.3-1.5,0-1.4,1.3-2,2.5-2,.6,0,1.3.1,1.9.4l-.7,1.3h0Z"/>
  <polygon class="st2" points="71.3 28.6 69.3 28.6 69.3 24.5 68.7 24.5 68.7 22.9 69.3 22.9 69.3 21.2 71.3 21.2 71.3 22.9 72.5 22.9 72.5 24.5 71.3 24.5 71.3 28.6"/>
  <path class="st2" d="M74.9,23.8h0c.4-.7,1.1-1,1.8-1h.4v2c-.3-.1-.6-.2-.8-.2-1.1,0-1.4.7-1.4,1.7v2.3h-2v-5.7h2s0,.9,0,.9Z"/>
  <path class="st2" d="M79.8,20.7c0,.6-.5,1.1-1.1,1.1s-1.1-.5-1.1-1.1.5-1.1,1.1-1.1,1.1.5,1.1,1.1h0M79.7,28.6h-2v-5.7h2v5.7Z"/>
  <path class="st2" d="M80.7,19.4h2v4.1c.4-.5,1.1-.8,1.8-.7,1.7,0,3,1.5,2.9,3.2,0,1.6-1.3,2.8-2.9,2.9-.7,0-1.3-.3-1.7-.8h0v.6h-2v-9.2c0,0,0,0,0,0ZM82.6,25.7c0,.7.5,1.3,1.2,1.4s1.3-.5,1.4-1.2c0-.7-.5-1.3-1.2-1.4h-.2c-.7,0-1.2.6-1.2,1.2"/>
  <path class="st2" d="M90,22.9v3c0,.7.2,1.2,1,1.2s1-.5,1-1.2v-3h2v3.4c0,1.9-1.3,2.5-3,2.5s-3-.6-3-2.5v-3.4h2,0Z"/>
  <polygon class="st2" points="97.2 28.6 95.2 28.6 95.2 24.5 94.6 24.5 94.6 22.9 95.2 22.9 95.2 21.2 97.2 21.2 97.2 22.9 98.4 22.9 98.4 24.5 97.2 24.5 97.2 28.6"/>
  <path class="st2" d="M105.2,25.7c0,1.9-1.6,3-3.4,3s-3.4-1.1-3.4-3,1.6-3,3.4-3,3.4,1.1,3.4,3M100.5,25.7c0,.7.5,1.3,1.2,1.4s1.3-.5,1.4-1.2c0-.7-.5-1.3-1.2-1.4h-.2c-.7,0-1.2.6-1.2,1.2"/>
  <path class="st2" d="M107.9,23.8h0c.4-.7,1.1-1,1.8-1h.4v2c-.3-.1-.6-.2-.8-.2-1.1,0-1.4.7-1.4,1.7v2.3h-2v-5.7h2s0,.9,0,.9Z"/>
</svg>